<svg id="Layer_1" data-name="Layer 1" xmlns="http://www.w3.org/2000/svg" viewBox="0 0 509.42 95.24">
  <defs>
    <style>
      .cls-1 {
        fill: #f9cd49;
      }
    </style>
  </defs>
  <title>Untitled-1</title>
  <g id="zaMfEV.tif">
    <g>
      <path class="cls-1" d="M338.76,63.15c10.56,0,21.14-.14,31.7.08,3.54.07,5.21-1,6.28-4.47,3.19-10.31,6.79-20.5,10.59-31.77,3.89,11.21,7.64,21.38,10.9,31.7,1.12,3.53,2.81,4.46,6.34,4.39C415.28,62.86,426,63,438.05,63c-9.87,7.2-18.51,13.79-27.48,19.89-3.3,2.25-3.49,4.2-2.27,7.66,3.39,9.58,6.32,19.32,9.63,29.6-2.79-.47-4.26-2-5.88-3.16-6.79-4.75-13.73-9.32-20.18-14.48-3.49-2.8-5.7-2.12-8.87.27-8.31,6.27-16.89,12.2-26.48,19.07,3.42-10.67,6-20.27,9.64-29.48,2.12-5.4.83-8.19-3.74-11.19-8.21-5.39-16-11.36-24-17.09Z" transform="translate(-29.75 -26.61)"/>
      <path class="cls-1" d="M236.21,63.14c10.8,0,21.6-.09,32.39.07,3,0,4.4-1,5.29-3.78C277.23,49,280.78,38.55,284.65,27c2.64,7.6,4.91,14.23,7.25,20.83,1.75,5,2.25,11.51,5.77,14.37s10.21.74,15.51.82c6.92.11,13.85,0,22.21,0-9.93,7.24-18.7,13.83-27.72,20.06-2.83,2-3.43,3.58-2.29,6.81,3.13,8.83,5.82,17.82,8.73,26.73.36,1.09,1,2.1.26,3.83-8.2-5.77-16.52-11.12-24.21-17.24-4-3.21-6.59-3-10.48,0-7.92,6.19-16.31,11.81-25,18-.49-2.67.72-4.47,1.29-6.31,2.6-8.32,5.15-16.66,8.1-24.86,1.22-3.39.68-5.27-2.35-7.34-8.81-6-17.39-12.39-26.06-18.63Z" transform="translate(-29.75 -26.61)"/>
      <path class="cls-1" d="M182,27c3.33,9.6,6.19,17.74,9,25.9C194.46,63,194.44,63,205,63h27.72c-10,7.27-18.75,13.88-27.78,20.09-2.9,2-3.3,3.66-2.19,6.84,3.53,10.08,6.68,20.28,10.33,31.5-9.15-6.46-17.76-12.06-25.79-18.38-3.89-3.07-6.39-2.84-10.07,0-7,5.5-14.47,10.48-21.73,15.69-.91.65-1.69,1.55-3.27,1.36.15-4.09,2-7.64,3.11-11.34,1.9-6.3,3.81-12.61,6.18-18.74,1.31-3.38.7-5.23-2.28-7.27a320.61,320.61,0,0,1-26-19.64c10.33,0,20.68-.25,31,.12,4.47.15,6.34-1.35,7.59-5.52C174.75,47.92,178.24,38.25,182,27Z" transform="translate(-29.75 -26.61)"/>
      <path class="cls-1" d="M79.9,28.64C83.39,38.71,87,48.73,90.29,58.88c1,3.25,2.52,4.28,5.94,4.21,10.75-.24,21.5-.09,33.83-.09-9.53,6.92-17.71,13.2-26.29,18.92-4,2.67-5,5.1-3.24,9.65,3,7.82,5.3,15.92,7.89,23.9.45,1.38,1.25,2.71.59,5-7.57-5.37-14.93-10.54-22.23-15.78-7.09-5.08-7-5.08-14-.1-7.5,5.37-15.05,10.68-22.63,16-1.54-2.25,0-3.87.44-5.43,2.55-8.34,5.12-16.68,8.14-24.86,1.31-3.55.88-5.5-2.38-7.67C48.64,77.52,41.22,71.94,33.7,66.51c-1-.73-1.91-1.61-4-3.36,11.37,0,21.43-.26,31.46.12,4.63.17,6.71-1.28,8-5.7,2.87-9.75,6.33-19.32,9.55-29Z" transform="translate(-29.75 -26.61)"/>
      <path class="cls-1" d="M439.79,63c12.22,0,22.85-.17,33.47.09,3.54.09,4.92-1.24,5.91-4.35,3.28-10.34,6.82-20.6,10.66-32.11,3.73,10.76,7.51,20.28,10.24,30.09,1.47,5.26,4,6.51,9.05,6.3,9.78-.41,19.58-.12,30-.12-2.64,3.46-6,5.13-8.92,7.32-6,4.48-11.93,8.93-18.13,13-2.48,1.65-2.65,3.1-1.77,5.66,3.49,10.22,6.77,20.52,10.58,32.18-9.61-6.8-18.15-12.64-26.44-18.8-3.1-2.31-5.25-2.66-8.56-.11-8.22,6.33-16.84,12.16-25.51,18.34-1.16-2,0-3.48.46-4.86,2.81-8.94,5.6-17.89,8.73-26.72,1-2.93.35-4.42-2.05-6.1C458.64,76.61,449.86,70.2,439.79,63Z" transform="translate(-29.75 -26.61)"/>
    </g>
  </g>
</svg>
